<svg width="807" height="475" viewBox="0 0 807 475" fill="none" xmlns="http://www.w3.org/2000/svg">
<path d="M138.964 214.904C131.449 222.419 131.449 234.601 138.964 242.117L156.246 259.398L158.22 261.374H266.679C274.194 253.859 274.194 241.676 266.679 234.16L247.423 214.904H138.964Z" fill="url(#paint0_linear_46_18)"/>
<path d="M191.471 162.397L138.964 214.904C131.449 222.419 131.449 234.601 138.964 242.117L158.22 261.374L193.362 226.232C206.687 212.908 214.172 194.837 214.172 175.996V139.695L191.471 162.397Z" fill="url(#paint1_linear_46_18)"/>
<path d="M214.172 248.155L200.952 261.374C194.883 267.436 191.471 275.663 191.471 284.24V336.581L214.172 313.881L266.679 261.374C274.194 253.859 274.194 241.677 266.679 234.16L247.423 214.904L214.172 248.155Z" fill="url(#paint2_linear_46_18)"/>
<path d="M314.931 246.22C319.694 246.22 323.399 245.367 326.045 243.662C328.691 241.898 330.015 239.075 330.015 235.194C330.015 232.959 329.573 231.107 328.691 229.637C327.868 228.108 326.751 226.843 325.339 225.843C323.928 224.785 322.311 223.903 320.488 223.197C318.665 222.433 316.754 221.639 314.754 220.815C312.225 219.816 309.961 218.787 307.962 217.728C305.962 216.67 304.257 215.493 302.846 214.2C301.434 212.847 300.346 211.318 299.582 209.613C298.876 207.907 298.523 205.908 298.523 203.614C298.523 198.381 300.258 194.411 303.728 191.706C307.197 189.001 312.02 187.648 318.194 187.648C319.841 187.648 321.458 187.766 323.046 188.001C324.634 188.236 326.104 188.56 327.456 188.972C328.868 189.324 330.132 189.736 331.249 190.206C332.426 190.677 333.396 191.177 334.16 191.706L332.043 196.734C330.338 195.558 328.25 194.617 325.78 193.911C323.369 193.206 320.752 192.853 317.93 192.853C315.989 192.853 314.195 193.059 312.549 193.47C310.961 193.823 309.579 194.441 308.403 195.323C307.227 196.146 306.286 197.204 305.58 198.498C304.933 199.792 304.61 201.35 304.61 203.173C304.61 205.055 304.963 206.643 305.668 207.937C306.374 209.231 307.344 210.348 308.579 211.289C309.873 212.23 311.373 213.082 313.078 213.847C314.784 214.611 316.636 215.405 318.635 216.229C321.046 217.228 323.311 218.228 325.428 219.228C327.603 220.227 329.485 221.404 331.073 222.756C332.661 224.109 333.925 225.755 334.866 227.696C335.807 229.637 336.277 232.018 336.277 234.841C336.277 240.369 334.337 244.515 330.456 247.279C326.633 250.043 321.429 251.424 314.842 251.424C312.49 251.424 310.344 251.277 308.403 250.983C306.462 250.689 304.728 250.337 303.199 249.925C301.67 249.454 300.376 248.984 299.317 248.514C298.259 248.043 297.435 247.631 296.847 247.279L298.788 242.074C299.376 242.427 300.17 242.839 301.17 243.309C302.169 243.78 303.346 244.25 304.698 244.72C306.051 245.132 307.58 245.485 309.285 245.779C310.99 246.073 312.872 246.22 314.931 246.22ZM402.224 219.492C402.224 224.726 401.459 229.342 399.93 233.341C398.401 237.34 396.314 240.692 393.667 243.397C391.08 246.044 388.051 248.043 384.582 249.396C381.112 250.748 377.437 251.424 373.555 251.424C369.674 251.424 365.999 250.748 362.529 249.396C359.059 248.043 356.001 246.044 353.355 243.397C350.768 240.692 348.709 237.34 347.18 233.341C345.651 229.342 344.887 224.726 344.887 219.492C344.887 214.258 345.651 209.672 347.18 205.731C348.709 201.733 350.768 198.41 353.355 195.764C356.001 193.059 359.059 191.03 362.529 189.677C365.999 188.325 369.674 187.648 373.555 187.648C377.437 187.648 381.112 188.325 384.582 189.677C388.051 191.03 391.08 193.059 393.667 195.764C396.314 198.41 398.401 201.733 399.93 205.731C401.459 209.672 402.224 214.258 402.224 219.492ZM395.873 219.492C395.873 215.376 395.343 211.7 394.285 208.466C393.226 205.173 391.727 202.379 389.786 200.086C387.845 197.793 385.493 196.058 382.729 194.882C380.024 193.647 376.966 193.029 373.555 193.029C370.145 193.029 367.057 193.647 364.293 194.882C361.588 196.058 359.265 197.793 357.325 200.086C355.384 202.379 353.884 205.173 352.826 208.466C351.767 211.7 351.238 215.376 351.238 219.492C351.238 223.609 351.767 227.314 352.826 230.607C353.884 233.841 355.384 236.605 357.325 238.899C359.265 241.192 361.588 242.956 364.293 244.191C367.057 245.426 370.145 246.044 373.555 246.044C376.966 246.044 380.024 245.426 382.729 244.191C385.493 242.956 387.845 241.192 389.786 238.899C391.727 236.605 393.226 233.841 394.285 230.607C395.343 227.314 395.873 223.609 395.873 219.492ZM450.423 244.897V250.101H415.668V188.972H421.666V244.897H450.423ZM451.84 188.972C453.604 194.205 455.31 199.175 456.956 203.879C458.603 208.525 460.22 213.053 461.808 217.463C463.396 221.815 465.013 226.108 466.659 230.342C468.306 234.517 470.07 238.752 471.952 243.044C473.775 238.81 475.51 234.606 477.156 230.43C478.862 226.196 480.508 221.903 482.096 217.552C483.743 213.141 485.36 208.584 486.948 203.879C488.594 199.175 490.3 194.205 492.064 188.972H498.415C495.71 196.675 493.269 203.438 491.094 209.26C488.977 215.082 486.977 220.345 485.095 225.05C483.272 229.754 481.508 234.106 479.803 238.105C478.156 242.045 476.421 246.044 474.598 250.101H469.041C467.218 246.044 465.454 242.045 463.748 238.105C462.043 234.106 460.249 229.754 458.368 225.05C456.545 220.345 454.545 215.082 452.369 209.26C450.252 203.438 447.841 196.675 445.136 188.972H451.84ZM543.951 250.101C542.834 247.102 541.775 244.221 540.775 241.457C539.776 238.693 538.805 235.988 537.864 233.341H508.137C507.138 235.988 506.138 238.693 505.138 241.457C504.139 244.221 503.109 247.102 502.051 250.101H495.788C498.14 243.75 500.346 237.84 502.404 232.371C504.462 226.843 506.461 221.639 508.402 216.758C510.402 211.818 512.372 207.084 514.312 202.556C516.253 198.028 518.311 193.5 520.487 188.972H525.78C527.955 193.5 530.014 198.028 531.954 202.556C533.895 207.084 535.836 211.818 537.776 216.758C539.776 221.639 541.804 226.843 543.863 232.371C545.921 237.84 548.156 243.75 550.567 250.101H543.951ZM522.957 195.852C520.722 200.909 518.546 206.055 516.429 211.289C514.371 216.523 512.225 222.168 509.99 228.225H536.012C533.777 222.168 531.601 216.523 529.484 211.289C527.367 206.055 525.191 200.909 522.957 195.852ZM600.108 207.319C600.108 211.906 598.902 215.523 596.491 218.169C594.08 220.815 590.905 222.727 586.964 223.903C587.905 225.079 589.111 226.667 590.581 228.666C592.11 230.666 593.668 232.871 595.256 235.282C596.844 237.634 598.402 240.104 599.931 242.692C601.46 245.279 602.754 247.749 603.813 250.101H597.373C596.138 247.749 594.786 245.397 593.316 243.044C591.904 240.692 590.434 238.428 588.905 236.252C587.435 234.018 585.994 231.959 584.583 230.078C583.171 228.196 581.937 226.549 580.878 225.138C578.996 225.314 577.114 225.402 575.233 225.402H565.353V250.101H559.355V190.118C561.472 189.53 563.942 189.119 566.764 188.883C569.646 188.589 572.292 188.442 574.703 188.442C583.113 188.442 589.434 190.03 593.668 193.206C597.961 196.381 600.108 201.086 600.108 207.319ZM575.409 193.647C573.174 193.647 571.204 193.735 569.499 193.911C567.852 194.029 566.47 194.147 565.353 194.264V220.286H573.645C576.409 220.286 579.026 220.169 581.495 219.933C583.965 219.639 586.112 219.051 587.935 218.169C589.758 217.228 591.199 215.905 592.257 214.2C593.316 212.494 593.845 210.171 593.845 207.231C593.845 204.526 593.316 202.291 592.257 200.527C591.199 198.763 589.817 197.381 588.111 196.381C586.406 195.323 584.436 194.617 582.201 194.264C580.025 193.852 577.761 193.647 575.409 193.647ZM613.883 188.972H619.881V250.101H613.883V188.972ZM648.907 246.22C653.67 246.22 657.375 245.367 660.021 243.662C662.668 241.898 663.991 239.075 663.991 235.194C663.991 232.959 663.55 231.107 662.668 229.637C661.844 228.108 660.727 226.843 659.316 225.843C657.904 224.785 656.287 223.903 654.464 223.197C652.641 222.433 650.73 221.639 648.73 220.815C646.202 219.816 643.938 218.787 641.938 217.728C639.939 216.67 638.233 215.493 636.822 214.2C635.411 212.847 634.323 211.318 633.558 209.613C632.853 207.907 632.5 205.908 632.5 203.614C632.5 198.381 634.234 194.411 637.704 191.706C641.174 189.001 645.996 187.648 652.171 187.648C653.817 187.648 655.434 187.766 657.022 188.001C658.61 188.236 660.08 188.56 661.433 188.972C662.844 189.324 664.108 189.736 665.226 190.206C666.402 190.677 667.372 191.177 668.137 191.706L666.02 196.734C664.314 195.558 662.227 194.617 659.757 193.911C657.346 193.206 654.729 192.853 651.906 192.853C649.965 192.853 648.172 193.059 646.525 193.47C644.937 193.823 643.555 194.441 642.379 195.323C641.203 196.146 640.262 197.204 639.557 198.498C638.91 199.792 638.586 201.35 638.586 203.173C638.586 205.055 638.939 206.643 639.645 207.937C640.35 209.231 641.321 210.348 642.556 211.289C643.849 212.23 645.349 213.082 647.054 213.847C648.76 214.611 650.612 215.405 652.612 216.229C655.023 217.228 657.287 218.228 659.404 219.228C661.58 220.227 663.462 221.404 665.049 222.756C666.637 224.109 667.901 225.755 668.842 227.696C669.783 229.637 670.254 232.018 670.254 234.841C670.254 240.369 668.313 244.515 664.432 247.279C660.609 250.043 655.405 251.424 648.819 251.424C646.466 251.424 644.32 251.277 642.379 250.983C640.439 250.689 638.704 250.337 637.175 249.925C635.646 249.454 634.352 248.984 633.294 248.514C632.235 248.043 631.412 247.631 630.824 247.279L632.764 242.074C633.352 242.427 634.146 242.839 635.146 243.309C636.146 243.78 637.322 244.25 638.674 244.72C640.027 245.132 641.556 245.485 643.261 245.779C644.967 246.073 646.849 246.22 648.907 246.22Z" fill="black"/>
<path d="M410.904 297.708L410.867 299.247H395.511V273.624H410.867V275.163H397.377V285.521H408.604V287.024H397.377V297.708H410.904ZM444.986 273.624V299.247H444.117C443.96 299.247 443.827 299.223 443.719 299.174C443.622 299.114 443.526 299.017 443.429 298.885L426.787 276.648C426.824 277.01 426.842 277.354 426.842 277.68V299.247H425.212V273.624H426.136C426.305 273.624 426.431 273.648 426.516 273.696C426.612 273.732 426.715 273.823 426.824 273.968L443.429 296.15C443.393 295.788 443.375 295.444 443.375 295.118V273.624H444.986ZM476.635 297.708L476.599 299.247H461.243V273.624H476.599V275.163H463.109V285.521H474.336V287.024H463.109V297.708H476.635ZM497.246 286.281C498.38 286.281 499.394 286.148 500.288 285.883C501.193 285.605 501.954 285.213 502.569 284.706C503.197 284.199 503.674 283.589 504 282.877C504.326 282.165 504.489 281.362 504.489 280.468C504.489 278.646 503.891 277.293 502.696 276.412C501.513 275.531 499.781 275.09 497.499 275.09H492.809V286.281H497.246ZM508.618 299.247H507.024C506.819 299.247 506.644 299.217 506.499 299.156C506.366 299.084 506.239 298.957 506.119 298.776L497.897 288.382C497.801 288.249 497.698 288.134 497.59 288.038C497.493 287.941 497.378 287.869 497.246 287.82C497.125 287.76 496.974 287.718 496.793 287.694C496.624 287.67 496.413 287.657 496.159 287.657H492.809V299.247H490.944V273.624H497.499C500.445 273.624 502.648 274.197 504.109 275.344C505.581 276.479 506.318 278.151 506.318 280.36C506.318 281.338 506.149 282.231 505.811 283.04C505.473 283.849 504.984 284.561 504.344 285.177C503.716 285.78 502.95 286.275 502.044 286.662C501.151 287.048 500.143 287.307 499.02 287.44C499.31 287.621 499.569 287.863 499.799 288.165L508.618 299.247ZM541.956 287.621V296.73C540.676 297.635 539.312 298.329 537.863 298.812C536.415 299.295 534.785 299.537 532.974 299.537C530.946 299.537 529.123 299.229 527.505 298.613C525.888 297.985 524.505 297.104 523.358 295.969C522.224 294.822 521.348 293.44 520.733 291.822C520.129 290.205 519.827 288.406 519.827 286.426C519.827 284.446 520.123 282.654 520.715 281.048C521.318 279.43 522.175 278.054 523.286 276.919C524.409 275.772 525.761 274.891 527.342 274.275C528.924 273.648 530.704 273.334 532.684 273.334C533.662 273.334 534.561 273.4 535.382 273.533C536.215 273.666 536.988 273.865 537.7 274.131C538.412 274.384 539.076 274.704 539.692 275.09C540.308 275.465 540.899 275.899 541.467 276.394L540.96 277.191C540.791 277.481 540.537 277.547 540.199 277.39C540.018 277.318 539.759 277.149 539.42 276.883C539.082 276.617 538.618 276.34 538.026 276.05C537.435 275.76 536.698 275.501 535.817 275.271C534.948 275.042 533.885 274.927 532.63 274.927C530.964 274.927 529.455 275.193 528.103 275.724C526.763 276.255 525.616 277.016 524.662 278.006C523.721 278.996 522.99 280.203 522.471 281.627C521.964 283.052 521.711 284.651 521.711 286.426C521.711 288.225 521.964 289.843 522.471 291.279C522.99 292.716 523.733 293.935 524.698 294.937C525.676 295.939 526.859 296.706 528.248 297.237C529.636 297.768 531.199 298.034 532.938 298.034C533.698 298.034 534.398 297.985 535.038 297.889C535.69 297.792 536.306 297.659 536.885 297.49C537.477 297.309 538.044 297.092 538.588 296.838C539.143 296.573 539.704 296.277 540.272 295.951V289.052H535.364C535.231 289.052 535.117 289.01 535.02 288.925C534.936 288.841 534.893 288.744 534.893 288.635V287.621H541.956ZM564.235 288.69V299.247H562.388V288.69L552.9 273.624H554.529C554.698 273.624 554.837 273.666 554.946 273.75C555.055 273.823 555.145 273.931 555.217 274.076L562.551 285.847C562.708 286.124 562.853 286.396 562.986 286.662C563.119 286.915 563.233 287.169 563.33 287.422C563.427 287.169 563.535 286.915 563.656 286.662C563.777 286.396 563.916 286.124 564.072 285.847L571.406 274.076C571.467 273.943 571.551 273.835 571.66 273.75C571.781 273.666 571.925 273.624 572.094 273.624H573.724L564.235 288.69Z" fill="black"/>
<defs>
<linearGradient id="paint0_linear_46_18" x1="133.327" y1="238.138" x2="272.316" y2="238.138" gradientUnits="userSpaceOnUse">
<stop stop-color="#64FFB5"/>
<stop offset="1" stop-color="#2555EF"/>
</linearGradient>
<linearGradient id="paint1_linear_46_18" x1="133.328" y1="200.534" x2="214.172" y2="200.534" gradientUnits="userSpaceOnUse">
<stop stop-color="#B2E80A"/>
<stop offset="1" stop-color="#02A595"/>
</linearGradient>
<linearGradient id="paint2_linear_46_18" x1="191.472" y1="275.742" x2="272.316" y2="275.742" gradientUnits="userSpaceOnUse">
<stop stop-color="#B2E80A"/>
<stop offset="1" stop-color="#02A595"/>
</linearGradient>
</defs>
</svg>
